<svg xmlns="http://www.w3.org/2000/svg" viewBox="0 0 100.71 112.82"><defs><style>.cls-1{fill:#86c3d0;}.cls-2{fill:#fff;}.cls-3{font-size:12px;fill:#1d1d1b;font-family:MyriadPro-Regular, Myriad Pro;}.cls-4{letter-spacing:0.01em;}.cls-5{letter-spacing:0em;}.cls-6{letter-spacing:0em;}.cls-7{letter-spacing:-0.01em;}.cls-8{letter-spacing:0.03em;}</style></defs><g id="API"><path class="cls-1" d="M50.35,13.37a43,43,0,1,0,43.05,43A43,43,0,0,0,50.35,13.37Z"/><path class="cls-2" d="M70.93,67.93l-9.05,9a1.84,1.84,0,0,1-2.62,0l-24.1-24.1a1.85,1.85,0,0,1-.44-.7L29.35,37.79a1.87,1.87,0,0,1,.43-2,1.85,1.85,0,0,1,1.95-.42l14.4,5.37a1.85,1.85,0,0,1,.7.43l24.1,24.11A1.85,1.85,0,0,1,70.93,67.93Zm-10,7.7,8.46-8.46-23.9-23.9-8.45,8.46ZM36.49,49.9l7.36-7.35L31.63,37.69Z"/></g><g id="HOSTING"><text class="cls-3" transform="translate(17.93 -4.98)"><tspan class="cls-4">G</tspan><tspan x="7.81" y="0">ene</tspan><tspan class="cls-5" x="26.5" y="0">r</tspan><tspan class="cls-6" x="30.36" y="0">a</tspan><tspan class="cls-7" x="36.1" y="0">t</tspan><tspan x="40" y="0">e J</tspan><tspan class="cls-8" x="52.99" y="0">W</tspan><tspan x="63.54" y="0">T</tspan></text></g></svg>